<?xml version="1.0" encoding="utf-8"?>
<!-- Generator: Adobe Illustrator 24.0.0, SVG Export Plug-In . SVG Version: 6.00 Build 0)  -->
<svg version="1.1" id="Layer_1" xmlns="http://www.w3.org/2000/svg" xmlns:xlink="http://www.w3.org/1999/xlink" x="0px" y="0px"
	 viewBox="0 0 144 36" style="enable-background:new 0 0 144 36;" xml:space="preserve">
<style type="text/css">
	.st0{fill-rule:evenodd;clip-rule:evenodd;fill:#F2595F;}
	.st1{fill:#F2595F;}
	.st2{fill:#333333;}
</style>
<g>
	<path class="st0" d="M39.7,23l-2.4-1.8L32,17.5L28.6,20L28,19.5l-7.6-5.4l-7.6,5.4L12.3,20l-3.4-2.4L1.2,23
		C1.4,12.6,9.9,4.1,20.4,4.1C30.9,4.1,39.5,12.6,39.7,23 M1.4,23.9l7.3-5.1l-0.5,2.6l0.7,0.4l-2,1.3l3.3-0.9l10.1-6.8L19,19.2
		l1.5,0.9l-4,2.7l6.4-1.7l-2.1,2.8h3.9l7.1-5.3l-1.5,3.3l1.7,0.6l-0.8,1.4h8.3h1.1h0.1l-0.1-0.1c0-0.2,0-0.3,0-0.5
		C40.8,12.1,31.7,3,20.4,3C9.2,3,0.1,12.1,0.1,23.4c0,0.2,0,0.3,0,0.5L0,23.9h0.1h1.1H1.4z M27.5,13.9c-0.4-0.1-0.8,0-1.1,0.2
		c-0.1-0.4-0.4-0.6-0.8-0.8c-0.3-0.1-0.7,0-1,0.1c0.2,0,0.4,0,0.6,0.1c0.5,0.1,0.9,0.5,1.1,0.8c0.4-0.2,0.8-0.3,1.4-0.2
		c0.2,0.1,0.4,0.1,0.6,0.3C28.1,14.2,27.8,13.9,27.5,13.9z M25.3,8c-0.3-0.1-0.6,0-0.8,0.2c-0.1-0.3-0.3-0.5-0.6-0.6
		c-0.3-0.1-0.5,0-0.7,0.1c0.1,0,0.3,0,0.5,0.1c0.4,0.1,0.7,0.3,0.8,0.6c0.3-0.2,0.6-0.2,1-0.1c0.2,0,0.3,0.1,0.4,0.2
		C25.8,8.2,25.6,8,25.3,8z M14.4,10.7c0.5-0.1,1.1,0,1.5,0.3c0.2-0.5,0.6-0.9,1.1-1c0.5-0.1,0.9,0,1.3,0.2c-0.3,0-0.6,0-0.8,0.1
		c-0.7,0.2-1.2,0.6-1.5,1.1c-0.5-0.3-1.1-0.4-1.8-0.2c-0.3,0.1-0.5,0.2-0.8,0.4C13.6,11.1,13.9,10.8,14.4,10.7z"/>
	<g>
		<g>
			<path class="st1" d="M3.4,32.9v-2.3H1.5v2.3H0v-5.8h1.5v2.2h1.9v-2.2h1.5v5.8H3.4z"/>
			<path class="st1" d="M9.6,32.9l-0.3-0.8h-2L7,32.9H5.4l2.3-5.8h1.2l2.3,5.8H9.6z M8.4,28.9L8.4,28.9l-0.6,2h1.2L8.4,28.9z"/>
			<path class="st1" d="M20.1,29.9c0,0.9-0.3,1.6-0.9,2.2C18.7,32.7,17.9,33,17,33c-0.9,0-1.6-0.3-2.2-0.9C14.3,31.5,14,30.8,14,30
				c0-0.9,0.3-1.6,0.9-2.1c0.6-0.6,1.3-0.8,2.2-0.8c0.6,0,1.2,0.2,1.8,0.6c0.6,0.4,0.9,0.9,1.1,1.5h-1.7c-0.3-0.5-0.7-0.7-1.3-0.7
				c-0.5,0-0.8,0.2-1.1,0.5c-0.3,0.3-0.4,0.7-0.4,1.2c0,0.5,0.1,0.9,0.4,1.2c0.3,0.3,0.7,0.5,1.2,0.5c0.3,0,0.6-0.1,0.9-0.2
				c0.3-0.2,0.4-0.4,0.5-0.7h-1.7v-1.2h3.4c0,0,0,0.1,0,0.2V29.9z"/>
			<path class="st1" d="M20.9,32.9v-5.8h1.5v5.8H20.9z"/>
			<path class="st1" d="M27.1,32.9l-0.3-0.8h-2l-0.3,0.8H23l2.3-5.8h1.2l2.3,5.8H27.1z M25.9,28.9L25.9,28.9l-0.6,2h1.2L25.9,28.9z"
				/>
			<path class="st1" d="M32.9,32.9l-2.2-3.5l0,0l0,3.5h-1.4v-5.8h1.3l2.2,3.6l0,0l-0.1-3.6h1.4v5.8H32.9z"/>
			<path class="st1" d="M41.2,29.9c0,0.9-0.3,1.6-0.9,2.2C39.7,32.7,39,33,38.1,33c-0.9,0-1.6-0.3-2.2-0.9C35.3,31.5,35,30.8,35,30
				c0-0.9,0.3-1.6,0.9-2.1c0.6-0.6,1.3-0.8,2.2-0.8c0.6,0,1.2,0.2,1.8,0.6c0.6,0.4,0.9,0.9,1.1,1.5h-1.7c-0.3-0.5-0.7-0.7-1.3-0.7
				c-0.5,0-0.8,0.2-1.1,0.5c-0.3,0.3-0.4,0.7-0.4,1.2c0,0.5,0.1,0.9,0.4,1.2c0.3,0.3,0.7,0.5,1.2,0.5c0.3,0,0.6-0.1,0.9-0.2
				c0.3-0.2,0.4-0.4,0.5-0.7h-1.7v-1.2h3.4c0,0,0,0.1,0,0.2V29.9z"/>
		</g>
	</g>
</g>
<g>
	<g>
		<path style="#333333" d="M64.1,23.6v-6.8h-7.5v6.8h-1.5V9.1h1.5v6.4h7.5V9.1h1.4v14.5H64.1z"/>
		<path style="#333333" d="M77.8,23.6v-1.9h0c-0.9,1.4-2.3,2.1-4.2,2.1c-1.6,0-3-0.5-4.1-1.6c-1.1-1.1-1.7-2.4-1.7-4
			c0-1.6,0.6-2.9,1.7-4c1.1-1.1,2.5-1.6,4.1-1.6c1.9,0,3.3,0.7,4.2,2.2h0v-1.9h1.4v10.7H77.8z M76.7,15.1c-0.8-0.9-1.9-1.3-3.1-1.3
			c-1.3,0-2.3,0.4-3.1,1.3c-0.8,0.8-1.2,1.9-1.2,3.2c0,1.3,0.4,2.3,1.3,3.1c0.8,0.8,1.9,1.2,3.1,1.2c1.2,0,2.2-0.4,3.1-1.3
			c0.8-0.8,1.2-1.9,1.2-3.1C77.9,17,77.5,16,76.7,15.1z M75.3,11.5l-3.9-2.1L72,8.2l3.9,2.1L75.3,11.5z"/>
		<path style="#333333" d="M102,16.9c-0.2,2-1,3.6-2.5,4.9c-1.5,1.3-3.2,2-5.2,2c-2.1,0-3.9-0.7-5.4-2.2c-1.6-1.5-2.3-3.3-2.3-5.3
			c0-2.1,0.8-3.9,2.3-5.3c1.5-1.4,3.3-2.2,5.4-2.2c2.4,0,4.4,0.9,5.9,2.7c0.4,0.5,0.7,1,0.9,1.5h-1.7c-0.5-0.9-1.2-1.5-2.2-2.1
			c-0.9-0.5-1.9-0.7-2.9-0.7c-1.7,0-3.2,0.6-4.4,1.8c-1.3,1.2-1.9,2.7-1.9,4.4c0,1.7,0.6,3.2,1.9,4.4c1.2,1.2,2.7,1.8,4.5,1.8
			c1.3,0,2.5-0.4,3.6-1.2c1.2-0.8,1.9-1.9,2.2-3.1h-8.1v-1.3H102z"/>
		<path style="#333333" d="M104.2,11.6V9.1h1.4v2.5H104.2z M104.2,23.6V12.9h1.4v10.7H104.2z"/>
		<path style="#333333" d="M117.6,23.6v-1.9h0c-0.9,1.4-2.3,2.1-4.2,2.1c-1.6,0-3-0.5-4.1-1.6c-1.1-1.1-1.7-2.4-1.7-4
			c0-1.6,0.6-2.9,1.7-4c1.1-1.1,2.5-1.6,4.1-1.6c1.9,0,3.3,0.7,4.2,2.2h0v-1.9h1.4v10.7H117.6z M116.5,15.1
			c-0.8-0.9-1.9-1.3-3.1-1.3c-1.3,0-2.3,0.4-3.1,1.3c-0.8,0.8-1.2,1.9-1.2,3.2c0,1.3,0.4,2.3,1.3,3.1c0.8,0.8,1.9,1.2,3.1,1.2
			c1.2,0,2.2-0.4,3.1-1.3c0.8-0.8,1.2-1.9,1.2-3.1C117.7,17,117.3,16,116.5,15.1z"/>
		<path style="#333333" d="M129.5,23.6v-5.9c0-0.6-0.1-1.1-0.2-1.6c-0.2-0.6-0.4-1-0.8-1.4c-0.7-0.6-1.4-0.9-2.3-0.9
			c-0.9,0-1.7,0.3-2.3,0.9c-0.4,0.3-0.6,0.8-0.8,1.3c-0.1,0.5-0.2,1-0.2,1.5v6h-1.4V12.9h1.4v1.4h0c0.7-1.1,1.8-1.6,3.3-1.6
			c1.5,0,2.7,0.5,3.5,1.4c0.8,0.9,1.2,2.1,1.2,3.7v5.9H129.5z"/>
		<path style="#333333" d="M144,21.9c0,0.4,0,0.8,0,1c0,0.4-0.1,0.7-0.1,1c-0.1,0.7-0.4,1.3-0.8,1.9c-1,1.3-2.4,2-4.3,2
			c-1.3,0-2.5-0.3-3.4-1c-1-0.7-1.7-1.7-2.1-2.9h1.5c0.7,1.8,2.1,2.7,4,2.7c1.2,0,2.1-0.4,2.9-1.1c0.7-0.7,1-1.7,1-2.9v-0.9h0
			c-0.4,0.7-1,1.3-1.8,1.7c-0.7,0.4-1.5,0.6-2.4,0.6c-1.6,0-2.9-0.5-4-1.6c-1.1-1.1-1.6-2.4-1.6-4c0-1.6,0.5-2.9,1.6-4
			c1.1-1.1,2.4-1.7,4-1.7c1.8,0,3.2,0.7,4.1,2.2h0v-1.9h1.4V21.9z M141.5,15.2c-0.8-0.9-1.8-1.3-3-1.3c-1.2,0-2.2,0.4-3,1.3
			c-0.8,0.9-1.2,1.9-1.2,3.1c0,1.2,0.4,2.2,1.2,3.1c0.8,0.9,1.8,1.3,3,1.3c1.2,0,2.2-0.4,3-1.3c0.8-0.9,1.2-1.9,1.2-3.1
			C142.7,17.1,142.3,16,141.5,15.2z"/>
	</g>
</g>
</svg>
