<svg viewBox="0 0 24 24" class="MuiSvgIcon-root" focusable="false" aria-hidden="true"><path d="M17.3 12.3c-.1-.1-.1-.1-.1-.3v-.8c-.1-.5-.4-1-.8-1.2-.4-.3-1-.4-1.5-.3-.2-.7-.8-1.3-1.5-1.6-.2-.1-.4-.2-.5-.4.4-.6.8-1.1 1.2-1.7.5-.6.9-1.4 1.2-2.1v-.2c.2-.7-.3-1.5-1-1.6-.5-.1-1 0-1.4.2-.7.4-1.3.9-1.9 1.6-.3.3-.6.6-.9 1 0-.1-.1-.2-.2-.2-.4-.4-.9-.7-1.4-.8-.6-.2-1.2-.1-1.7.4-.4.4-.5 1-.2 1.5.3.7.7 1.4 1.2 2 .1.1.1.2 0 .3-.2.3-.4.7-.6 1-.6 1.1-1.3 2.2-1.9 3.3-.4.6-.3 1.4.1 2 .1.2.3.4.5.6.3.5.8.8 1.3 1 .1 0 .1 0 .2.1.4.5.9.8 1.5 1.1-.4 1-.8 2.1-1.2 3.1-.1.2-.1.3-.1.5 0 .7.6 1.2 1.3 1.2h5.6c.4 0 .8-.2 1-.6l.9-1.8c.2-.3.3-.6.3-1 0-.1.1-.2.1-.3.3-.4.6-.8.7-1.3.2-.6.4-1.2.7-1.8.4-1.1 0-2.3-.9-2.9zM7.6 5.4c-.1-.1-.1-.4 0-.4.2-.1.3-.1.5-.1.3 0 .5.1.7.2.3.1.5.3.7.5L8.5 7c-.1-.1-.2-.3-.3-.5-.2-.3-.4-.7-.6-1.1zm7.8 13.7c-.3.6-.6 1.2-.9 1.7 0 .1-.2.1-.3.1H8.8c-.3 0-.3-.1-.3-.3l1.2-3c0-.1.1-.1.2-.1.3 0 .6.1.9.1.2 0 .3.1.5.2.5.3 1 .5 1.5.5.1 0 .1 0 .2.1.7.6 1.5.8 2.4.7zm1.8-4.5c-.3.7-.5 1.4-.8 2.1-.2.4-.4.8-.8 1.1-.3.3-.7.4-1.1.2-.4-.1-.7-.2-.9-.5-.2-.2-.4-.3-.7-.3-.5 0-1.1-.2-1.5-.6-.2-.2-.5-.3-.8-.3-1 .1-2.1-.3-2.7-1.1-.1-.1-.2-.2-.3-.2-.8-.2-1.4-.9-1.6-1.7 0-.2 0-.4.1-.6.3-.7.7-1.3 1.1-1.9 1-1.6 2-3.2 3.2-4.7.7-.9 1.4-1.8 2.2-2.5l.9-.6h.4c.3 0 .5.2.4.5-.1.3-.2.5-.3.8-.4.6-.9 1.2-1.3 1.9-.4.6-.8 1.2-1.1 1.8-.3.4-.6.8-.9 1.3l.8.6c.2-.2.3-.4.5-.6.3-.4.8-.4 1.2-.2.2.1.4.3.6.4.3.3.3.7.1 1.1-.1.3-.3.5-.4.8-.1.3 0 .6.2.7.3.1.6 0 .8-.3.1-.2.1-.3.2-.5.2-.4.5-.6.8-.6.5 0 .8.4.8.9 0 .3-.1.6-.2.9 0 .1 0 .1-.1.2l.6.3c.6.3.9 1 .6 1.6z"></path></svg>